# xmcd CD database file
#
# Track frame offsets:
#	187
#	17437
#	31315
#	49697
#	72400
#	90757
#	108312
#	128442
#	146727
#	166807
#
# Disc length: 2411 seconds
#
# Revision: 0
# Processed by: cddbd v1.5PL3 Copyright (c) Steve Scherf et al.
# Submitted via: CDex 1.51
#
DISCID=7209690a
DTITLE=Der Zibet - Pop Mania [BVCR-652]
DYEAR=1994
DGENRE=Vocal
TTITLE0=Perfect Kiss
TTITLE1=潜在的愛人
TTITLE2=夏の日のタイフーンのように
TTITLE3=さよならは言わない
TTITLE4=少年とライオン
TTITLE5=Pop Mania
TTITLE6=ビートニクの天使
TTITLE7=Blackout Highway
TTITLE8=ぜんまい仕掛けのピエロ
TTITLE9=The Luckiest Children
EXTD=YEAR: 1994
EXTT0=
EXTT1=
EXTT2=
EXTT3=
EXTT4=
EXTT5=
EXTT6=
EXTT7=
EXTT8=
EXTT9=
PLAYORDER=
